<svg xmlns="http://www.w3.org/2000/svg"  viewBox="0 0 50 50" width="30px" height="30px"><path d="M 22 0 C 15 0 10 7 10 14 C 10 29.5 23 42 23 42 C 23 42 14 29 14 14 C 14 2 22 0 22 0 z M 25 0 C 23.790142 0 22.025875 0.72302138 20.572266 2.953125 C 19.118656 5.1832286 18 8.8769722 18 15 C 18 26.348485 23.816406 41.357422 23.816406 41.357422 L 24.0625 42 L 25.9375 42 L 26.183594 41.357422 C 26.183594 41.357422 32 26.348485 32 15 C 32 8.8769722 30.881344 5.1832286 29.427734 2.953125 C 27.974125 0.72302138 26.209858 0 25 0 z M 28 0 C 28 0 36 2 36 14 C 36 29 27 42 27 42 C 27 42 40 29.5 40 14 C 40 7 35 0 28 0 z M 14 2 C 14 2 6 5 6 14 C 6 31 21.5 42 21.5 42 C 21.5 42 8 30 8 14 C 8 5.75 14 2 14 2 z M 25 2 C 25.361142 2 26.598313 2.2769786 27.751953 4.046875 C 28.905594 5.8167714 30 9.1230278 30 15 C 30 24.37071 26.057934 35.593799 25 38.519531 C 23.942066 35.593799 20 24.37071 20 15 C 20 9.1230278 21.094406 5.8167714 22.248047 4.046875 C 23.401687 2.2769786 24.638858 2 25 2 z M 36 2 C 36 2 42 5.75 42 14 C 42 30 28.5 42 28.5 42 C 28.5 42 44 31 44 14 C 44 5 36 2 36 2 z M 21 44 A 1.0001 1.0001 0 0 0 20.029297 45.242188 L 21.029297 49.242188 A 1.0001 1.0001 0 0 0 22 50 L 28 50 A 1.0001 1.0001 0 0 0 28.970703 49.242188 L 29.970703 45.242188 A 1.0001 1.0001 0 0 0 29 44 L 21 44 z M 22.28125 46 L 27.71875 46 L 27.21875 48 L 22.78125 48 L 22.28125 46 z"/></svg>